<?xml version="1.0" encoding="utf-8" ?>
<svg baseProfile="full" height="300mm" version="1.1" viewBox="0,0,200,300" width="200mm" xmlns="http://www.w3.org/2000/svg" xmlns:ev="http://www.w3.org/2001/xml-events" xmlns:xlink="http://www.w3.org/1999/xlink"><defs /><rect fill="#222222" height="300" width="200" x="0" y="0" /><text fill="#FFFFFF" style="font-size:12px; font-family:Arial; font-weight:bold;" x="10" y="20">Over 10KM Rides</text><text fill="#FFFFFF" style="font-size:4px; font-family:Arial" x="10" y="280">Runner</text><text fill="#FFFFFF" style="font-size:9px; font-family:Arial" x="10" y="290">Sawyer</text><text fill="#FFFFFF" style="font-size:4px; font-family:Arial" x="65" y="280">SPECIAL TRACKS</text><rect fill="yellow" height="2.6" width="2.6" x="65" y="283" /><text fill="#FFFFFF" style="font-size:3px; font-family:Arial" x="70" y="285.5">Over 20.0 km</text><rect fill="red" height="2.6" width="2.6" x="65" y="287" /><text fill="#FFFFFF" style="font-size:3px; font-family:Arial" x="70" y="289.5">Over 40.0 km</text><text fill="#FFFFFF" style="font-size:4px; font-family:Arial" x="120" y="280">STATISTICS</text><text fill="#FFFFFF" style="font-size:3px; font-family:Arial" x="120" y="285">Number: 6</text><text fill="#FFFFFF" style="font-size:3px; font-family:Arial" x="120" y="290">Weekly: 1.5</text><text fill="#FFFFFF" style="font-size:3px; font-family:Arial" x="141" y="285">Total: 82.8 km</text><text fill="#FFFFFF" style="font-size:3px; font-family:Arial" x="141" y="290">Avg: 13.8 km</text><text fill="#FFFFFF" style="font-size:3px; font-family:Arial" x="167" y="285">Min: 10.5 km</text><text fill="#FFFFFF" style="font-size:3px; font-family:Arial" x="167" y="290">Max: 19.1 km</text><polyline fill="none" points="80.91313815623289,88.61217977464548 78.64843939023558,89.5391232973634 78.26518267596839,89.13610490610881 79.06653762387577,73.72003741216031 78.96201306552393,66.12239783807308 75.35591579962056,50.885936654609395 73.10863779328065,42.783532533518155 68.02177594962995,44.65799871875788 55.58335349615663,45.56499212990457 52.53472054190934,46.351049733304535 47.30849262030097,47.15725942584686 41.59448342601536,49.43478411340038 27.640454875363503,53.848673482541926 24.051778369117528,56.02534991025459 17.937091700849123,61.1243225363869 15.323977740074042,65.13488487059658 14.0,76.2390844966285 14.034841519431211,83.33254938019672 15.393660778994672,88.30991464696126 16.212436486734077,97.21646746648184 28.354706024576444,92.03781906880613 28.807645777822472,91.97736712291953 29.034115654416382,92.34007852259674 28.807645777822472,91.45344948714774 32.44858456321526,89.88168828694324 33.180256472260226,90.76832433951495 33.999032179883216,89.88168828694324 39.78272441320587,87.58447646351124 48.96346479549538,84.88421104561712 55.75756109360373,83.25194324812037 77.56835228641285,83.17133708328765 77.70771836437052,91.07058572539245 78.38712799415225,94.39543060853612 78.61359787074616,94.47603221765894 86.0,91.89676449963008 85.94773772073677,91.21164088137448 84.22308250662172,87.28220977158344 81.26155335101066,88.30991464696126 82.20227437687572,87.58447646351124 82.23711589636514,87.06054723847774" stroke="#4DD2FF" stroke-linecap="round" stroke-linejoin="round" stroke-width="0.5"><title>2025-11-11 13.3km</title><desc>1762868500000</desc></polyline><polyline fill="none" points="180.83188818051713,74.49452045888756 177.57571517134784,75.90695412452624 177.18434822314885,75.96127827301098 176.96518273215042,75.65344121283852 177.05911079974612,70.5831073475274 177.60702452715486,63.35763265151763 177.5444058154826,54.93659742103773 172.2844340315205,34.0 167.79154146590736,35.648212274652906 156.551482713141,36.463256671777344 153.98411553289043,37.15151348414656 149.27205747633707,37.83976764042745 143.83988423505798,39.97696098606684 132.0675664326991,43.61737543242634 128.3104437298025,45.73638843499066 122.8626158105908,50.26410963611852 120.32655798614724,54.157857955709915 119.21507585322252,63.7198187999893 119.16811181948287,69.96741414048302 119.38727731042309,71.50664317497285 120.43614073167555,74.8929003169178 121.35976672946708,85.70314153336221 122.2677380493842,88.47349996221601 125.60218444810016,93.92355673314887 126.77628529281355,97.01969427209406 130.2985878267209,102.4694901406765 133.78958100487944,106.0 134.79148039227584,105.96378999679291 137.07706336985575,104.7507506460388 142.80667549173813,101.05726664885879" stroke="#4DD2FF" stroke-linecap="round" stroke-linejoin="round" stroke-width="0.5"><title>2025-09-16 10.5km</title><desc>1758028918000</desc></polyline><polyline fill="none" points="20.384960154013243,126.21602114128473 20.538494346750667,126.14689681400341 20.726147249049973,125.39640094670176 20.726147249049973,124.2410209569789 20.982037570269313,123.14487849954457 20.97350789286429,121.42657620085811 22.363845304993447,119.11570786233642 23.14857562351972,118.10838904452976 27.089286570757395,116.40974929764343 32.58239880023757,114.51355815082206 34.450398145389045,114.0 35.12424265802838,115.35302234767005 37.546671032498125,117.53559524594311 39.23554715272621,119.74774569948204 40.523528436373454,120.80442475764721 40.63441424226039,121.16981577151455 42.40858713624766,120.53778720295668 42.79242261813488,120.54766268099775 42.99713487509871,121.288320669526 42.78389294072986,121.54508078512299 43.05684261675924,121.46607774503354 43.6965684198949,122.98687496153434 44.498358093143906,123.44113443947572 44.77130776911508,123.77689007738081 45.453681959130336,124.99152576467895 45.462211636506254,125.25815107458038 47.782283882494085,129.24756818106835 47.58610130290617,129.93878714045422 46.92078646761365,130.39301406039885 47.19373614364304,130.86698770920339 46.54548066313146,131.2718383669635 46.17017485862016,132.11115751889156 46.11046711701783,135.09315036130283 44.88219357500202,138.05530416045804 43.815983903128654,139.73381783766672 44.05481486962526,143.06113853349962 43.92686970898649,143.8411170855179 43.95245874111424,143.49555774100008 43.61127164613572,143.33758734510047 43.99510712805204,143.3277141868166 44.10599293388077,143.1697435176684 43.86716196738416,139.69432373176824 44.89072325237794,138.005935671521 45.97399227900314,135.46836151151365 46.29812001925893,135.11289835278149 47.49227485174197,134.9746623281826 54.53778836352285,135.01415835531225 56.764034158346476,135.2313862170704 61.36153026352986,135.3301259934451 61.86478122862172,135.47823546957807 62.948050255246926,136.12991447840614 63.05893606110476,136.77171528457984 63.536597994097974,137.33452172837133 63.826607024879195,137.02843441828736 64.16779411988682,137.0975509920463 63.94602250814205,136.5939862555897 63.75836960587185,136.50512161906227 63.869255411758786,136.7618414581666 64.47486250536167,135.66584048140066 63.869255411758786,135.55722709770635 63.195410899148555,135.77445374352828 61.99272638923139,135.17214230300306 61.42123800513218,135.60659683266567 60.73886381514603,137.79858774378226 60.98622445901856,138.05530416045804 62.46185864487779,138.8155757176355 62.59833348286338,139.0722894435021 57.958188990858616,147.6520613858229 56.593440610857215,152.00583274844394 56.48255480499938,153.45704647296952 57.36964125200757,158.8766936811371 57.531705122150015,160.92996004565066 57.284344478248386,162.82524430447666 56.78962319053244,163.87158330585953 57.838773507624865,165.45094157688436 58.42732124650502,165.81616452011804 59.49353091837838,168.30359235492506 67.05082507259795,182.00304530251015 68.54351861326722,185.8124922208808 69.07235861048684,186.0 70.86359085922595,185.30918007725995 74.48017406623694,183.3945963363003 74.67635664591216,183.6413231628394 75.09431083724485,185.8026233803903 75.6316805118986,185.911180570758 77.12437405250967,185.46708220687287 77.32055663212668,185.17101550332882 76.72347921587061,184.2137269874802 76.54435599100543,183.18734531783412 76.78318695750204,182.93074820623588 78.25882114336127,182.160952805345 78.58294888361706,182.28925246237486 78.85589855964645,182.87153339193173 79.34209017001558,183.3452508958144 79.61503984598676,184.23346499024774 79.47856500800117,184.4505827561079 78.40382565872278,184.776258495207" stroke="#4DD2FF" stroke-linecap="round" stroke-linejoin="round" stroke-width="0.5"><title>2025-09-14 19.1km</title><desc>1757782535000</desc></polyline><polyline fill="none" points="176.01640282280277,174.60695414434304 174.36849132180214,174.76588852176792 173.65439633792266,171.1421445492888 173.4072096128366,171.22161351997056 173.59946595464135,172.42953689891146 173.4758725920692,171.7937889158493 173.20122067519696,171.77789518312784 174.05264161742525,170.34745262023353 173.53080297546694,169.6958022229228 173.37974442122504,168.71037450961012 174.14876978832763,165.37258931265387 175.97520503535634,160.2386186314252 178.85905016219476,155.32701511275081 184.04997139045736,145.47155200701673 184.6267404158134,144.81979785111616 184.50314705324126,144.10445479369082 184.88765973685076,143.54807459529547 185.68415029568132,143.46859154803678 185.02498569525778,142.7850356719573 185.50562654971145,142.46710168714344 186.0,141.3384308146342 185.02498569525778,141.22715296297974 183.96757581538986,141.5609862800775 181.89395384321688,140.43230885993398 181.01506770937704,140.22564873061492 173.46213999629254,140.1302670402074 169.4384894145187,139.74873969628243 162.11901583062718,139.8282246364397 161.8718291054829,139.51028463305556 161.44611863442697,135.99700450625096 161.4873164219316,133.37391577758535 160.97921037574997,132.94467888202053 159.61968338739825,132.8810881304671 157.2988746901392,134.24828358233208 156.63971008965746,135.55187740149267 156.39252336451318,136.87135762574326 156.5298493229202,140.305133428119 154.7034140758915,144.81979785111616 152.93190921231871,147.79241057705076 153.22029372502584,153.801048602254 152.38260537863243,155.61313217422867 150.96814800688298,157.2185570787551 150.39137898152694,159.44387125069625 149.14171275985427,161.33536337851547 148.9631890139426,162.0188380956679 149.05931718484499,165.0388068718894 147.98817470914219,165.51563871187682 144.87087545299437,166.13551792867656 142.5500667556771,165.73815973926685 135.8485599847627,166.78718317205494 127.33435056271264,171.1580383466644 126.12588212860283,169.648120379803 121.8687774175196,162.70230982321664 115.3045966050122,157.25034750437771 114.0,155.24753805823275 114.02746519172797,154.23022818972822 114.37078008771641,153.29238978661306 118.06484836922027,149.28664373890206 116.34827388904523,142.30813445207605 115.62044630938908,137.1257139778172 115.38699218007969,133.21493928716518 115.51058554265182,131.4343915378122 114.79649055883056,129.0337994897709 115.59298111771932,126.39469544803433 115.60671371361241,125.23411147824663 115.33206179662375,126.3470003863622" stroke="#4DD2FF" stroke-linecap="round" stroke-linejoin="round" stroke-width="0.5"><title>2025-09-13 13.1km</title><desc>1757774400000</desc></polyline><polyline fill="none" points="73.46911519195419,233.7315349641285 72.16193656093674,234.2355524267914 70.43405676120892,235.43476042710245 69.742904841376,235.67807696774253 69.47245409013703,235.4521401914535 69.57762938225642,229.94266655486717 70.08848080126336,223.91158842992445 70.05843071785057,215.42948224418797 65.04006677790312,195.38709873757034 60.65275459096301,197.00378736258426 49.954924874706194,197.80343415647803 47.20534223708091,198.51615967189719 42.7879799666116,199.1767318899947 37.67946577625116,201.19319973507663 34.77963272121269,201.8711447956448 26.17028380627744,204.75672707000922 22.9549248747644,206.59930235371576 19.559265442367177,209.2240687468875 17.440734557574615,211.1361248906469 15.30717863101745,214.23013414404704 14.631051752890926,218.15840241433762 14.030050083412789,224.4503965565964 14.0,229.94266655486717 15.26210350584006,234.8612272136379 15.983305509202182,244.52413648636139 16.94490818027407,247.6870567225269 20.220367278787307,253.1264478173398 21.12186978297541,255.64623500288872 24.757929883140605,261.20701352848846 28.093489148595836,264.6129012624151 29.205342237022705,264.45650994109747 32.01502504164819,262.8752118971606 40.128547579282895,257.45350781858724 47.490818030026276,253.0221799629653 59.946577629307285,243.7942235232913 78.89315525867278,236.72085822702502 86.0,235.6433174830454 85.74457429046743,235.29572224862932 80.06510851409985,235.92139316274552 79.11853088479256,232.84515582858876 73.12353923200862,234.04437356386916" stroke="#4DD2FF" stroke-linecap="round" stroke-linejoin="round" stroke-width="0.5"><title>2025-08-27 15.1km</title><desc>1756303499000</desc></polyline><polyline fill="none" points="182.66979965369683,206.55060961387062 177.64778629725333,208.48697100253776 177.66559485532343,202.4306303091871 176.50803858519066,201.503623441924 154.26514964131638,201.60662441400927 139.37719515210483,205.60302177796257 114.4808310661465,215.77905985561665 114.4274053920526,216.3764227595966 114.0,216.64420555987454 114.05342567409389,218.78645524756575 115.38906752411276,223.05028880557802 119.05763047246728,229.0648196679831 120.30422953260131,232.44276573129173 124.29334652493708,238.53940421546577 128.24684640124906,242.7204390073457 130.7756616374245,246.26292330014985 132.41404897358734,249.31105800828664 134.56888449180406,254.39804582754732 136.08261192194186,255.73670566100918 140.85530546633527,253.43008629894757 144.09646302252077,258.2286489339167 144.80880534264725,258.496376558076 150.25822409091052,255.7778950544016 152.76923076924868,255.24243228811247 156.36655948555563,254.95410559863376 159.6967598318588,253.80079474844388 168.77912441256922,247.39568140394113 172.23398466489743,243.2971267070534 176.70393272326328,240.94917369172617 180.08755874354392,238.33343968604458 182.58075686369557,236.9328753469308 183.27529062575195,234.83201072861266 186.0,230.75379972309747 184.09448429383337,228.83824810419173 183.34652485779952,227.37582556532288 178.43136284931097,214.19294982322026 177.55874350725207,209.55814170860685 177.84368043532595,208.79596313240472 181.74375463766046,206.7360067165282" stroke="#4DD2FF" stroke-linecap="round" stroke-linejoin="round" stroke-width="0.5"><title>2025-08-26 11.7km</title><desc>1756219138000</desc></polyline></svg>